<svg width="256" height="256" viewBox="0 0 256 256" fill="none" xmlns="http://www.w3.org/2000/svg">
<path d="M231.67 60.89C225.697 53.6974 217.148 49.1253 207.85 48.15C207.26 42.7781 205.468 37.608 202.606 33.0232C199.745 28.4385 195.889 24.5567 191.323 21.6658C186.757 18.775 181.598 16.9492 176.23 16.324C170.862 15.6988 165.422 16.2901 160.314 18.0542C155.206 19.8183 150.561 22.7098 146.722 26.5142C142.884 30.3187 139.952 34.9385 138.142 40.0309C136.333 45.1233 135.694 50.5578 136.272 55.931C136.849 61.3043 138.63 66.4786 141.48 71.07C141.484 71.0965 141.484 71.1234 141.48 71.15L71.17 141.51H71.07C66.4786 138.66 61.3043 136.879 55.931 136.302C50.5578 135.724 45.1234 136.363 40.0309 138.172C34.9385 139.982 30.3187 142.914 26.5142 146.752C22.7098 150.591 19.8183 155.236 18.0542 160.344C16.2902 165.452 15.6988 170.892 16.324 176.26C16.9493 181.628 18.775 186.787 21.6659 191.353C24.5567 195.919 28.4385 199.775 33.0232 202.636C37.608 205.498 42.7781 207.29 48.15 207.88C48.7403 213.252 50.5325 218.422 53.3936 223.007C56.2547 227.591 60.1113 231.473 64.6774 234.364C69.2434 237.255 74.4017 239.081 79.7697 239.706C85.1377 240.331 90.5775 239.74 95.6857 237.976C100.794 236.212 105.439 233.32 109.278 229.516C113.116 225.711 116.048 221.091 117.858 215.999C119.667 210.907 120.306 205.472 119.728 200.099C119.15 194.726 117.37 189.551 114.52 184.96V184.88L184.87 114.52H184.97C192.235 119.096 200.896 120.925 209.391 119.676C217.886 118.428 225.655 114.184 231.296 107.711C236.937 101.239 240.079 92.9629 240.155 84.3773C240.231 75.7916 237.236 67.4615 231.71 60.89H231.67ZM219.1 97.16C215.972 100.742 211.669 103.092 206.965 103.788C202.261 104.485 197.462 103.482 193.43 100.96C190.36 99.0123 186.719 98.1679 183.106 98.566C179.492 98.964 176.122 100.581 173.55 103.15L103.15 173.55C100.587 176.127 98.9777 179.499 98.587 183.113C98.1962 186.726 99.0472 190.365 101 193.43C102.703 196.169 103.718 199.279 103.959 202.495C104.2 205.711 103.659 208.938 102.384 211.9C101.108 214.862 99.1352 217.471 96.633 219.506C94.1309 221.541 91.1738 222.94 88.0138 223.585C84.8539 224.23 81.5849 224.101 78.4856 223.21C75.3862 222.318 72.5484 220.69 70.2142 218.465C67.8799 216.24 66.1184 213.483 65.0799 210.429C64.0414 207.376 63.7567 204.117 64.25 200.93C64.4292 199.788 64.3587 198.621 64.0435 197.508C63.7283 196.396 63.1757 195.366 62.424 194.487C61.6722 193.609 60.7391 192.904 59.6888 192.422C58.6385 191.939 57.496 191.689 56.34 191.69C55.9281 191.693 55.517 191.727 55.11 191.79C51.9262 192.28 48.6712 191.993 45.622 190.954C42.5728 189.916 39.8196 188.156 37.5965 185.825C35.3735 183.493 33.7464 180.66 32.8537 177.565C31.9611 174.47 31.8292 171.205 32.4694 168.048C33.1095 164.891 34.5027 161.935 36.5305 159.432C38.5583 156.929 41.1607 154.953 44.1162 153.672C47.0717 152.391 50.2929 151.843 53.5059 152.074C56.7188 152.305 59.8283 153.309 62.57 155C65.6395 156.948 69.2809 157.792 72.8943 157.394C76.5078 156.996 79.878 155.379 82.45 152.81L152.85 82.41C155.403 79.8358 157.007 76.4708 157.397 72.8662C157.788 69.2617 156.943 65.6313 155 62.57C153.297 59.831 152.282 56.721 152.041 53.5049C151.8 50.2889 152.341 47.0623 153.616 44.1002C154.892 41.1382 156.865 38.5285 159.367 36.4938C161.869 34.459 164.826 33.0595 167.986 32.4147C171.146 31.7698 174.415 31.8986 177.514 32.7902C180.614 33.6818 183.452 35.3096 185.786 37.535C188.12 39.7604 189.882 42.5172 190.92 45.5705C191.959 48.6238 192.243 51.8829 191.75 55.07C191.555 56.3147 191.657 57.5878 192.048 58.7856C192.438 59.9834 193.106 61.0721 193.997 61.9629C194.888 62.8537 195.977 63.5216 197.174 63.9121C198.372 64.3026 199.645 64.4046 200.89 64.21C204.963 63.551 209.139 64.1675 212.848 65.975C216.556 67.7826 219.615 70.6927 221.605 74.3066C223.594 77.9205 224.418 82.0614 223.962 86.1616C223.507 90.2619 221.795 94.121 219.06 97.21L219.1 97.16Z" fill="#235932"/>
</svg>
