<svg xmlns="http://www.w3.org/2000/svg" xmlns:xlink="http://www.w3.org/1999/xlink" width="1200" zoomAndPan="magnify" viewBox="0 0 900 899.99999" height="1200" preserveAspectRatio="xMidYMid meet" version="1.0"><defs><g/><clipPath id="ff37b243d1"><path d="M 14.25 14.25 L 885.75 14.25 L 885.75 885.75 L 14.25 885.75 Z M 14.25 14.25 " clip-rule="nonzero"/></clipPath><clipPath id="dde491a36a"><path d="M 450 885.75 C 333.660156 885.75 224.113281 840.46875 141.910156 758.089844 C 59.53125 675.886719 14.25 566.339844 14.25 450 C 14.25 333.660156 59.53125 224.113281 141.910156 141.910156 C 224.113281 59.53125 333.660156 14.25 450 14.25 C 566.339844 14.25 675.886719 59.53125 758.089844 141.910156 C 840.46875 224.289062 885.75 333.660156 885.75 450 C 885.75 566.339844 840.46875 675.886719 758.089844 758.089844 C 675.886719 840.46875 566.339844 885.75 450 885.75 Z M 450 40.375 C 340.625 40.375 237.699219 83.042969 160.371094 160.371094 C 83.042969 237.699219 40.375 340.625 40.375 450 C 40.375 559.375 83.042969 662.300781 160.371094 739.628906 C 237.699219 816.957031 340.625 859.625 450 859.625 C 559.375 859.625 662.300781 816.957031 739.628906 739.628906 C 816.957031 662.300781 859.625 559.375 859.625 450 C 859.625 340.625 816.957031 237.699219 739.628906 160.371094 C 662.300781 83.042969 559.375 40.375 450 40.375 Z M 450 40.375 " clip-rule="nonzero"/></clipPath><clipPath id="dc7040177c"><path d="M 392.933594 439.210938 L 507.066406 439.210938 L 507.066406 553.34375 L 392.933594 553.34375 Z M 392.933594 439.210938 " clip-rule="nonzero"/></clipPath><clipPath id="e834a53811"><path d="M 450 439.210938 C 418.484375 439.210938 392.933594 464.761719 392.933594 496.277344 C 392.933594 527.796875 418.484375 553.34375 450 553.34375 C 481.515625 553.34375 507.066406 527.796875 507.066406 496.277344 C 507.066406 464.761719 481.515625 439.210938 450 439.210938 Z M 450 439.210938 " clip-rule="nonzero"/></clipPath><clipPath id="f90165d945"><path d="M 392.933594 439.210938 L 507.066406 439.210938 L 507.066406 553.34375 L 392.933594 553.34375 Z M 392.933594 439.210938 " clip-rule="nonzero"/></clipPath><clipPath id="051326ee0c"><path d="M 450 439.210938 C 418.484375 439.210938 392.933594 464.761719 392.933594 496.277344 C 392.933594 527.792969 418.484375 553.34375 450 553.34375 C 481.515625 553.34375 507.066406 527.792969 507.066406 496.277344 C 507.066406 464.761719 481.515625 439.210938 450 439.210938 Z M 450 439.210938 " clip-rule="nonzero"/></clipPath><clipPath id="406c50c0ef"><path d="M 411.648438 480 L 433 480 L 433 504 L 411.648438 504 Z M 411.648438 480 " clip-rule="nonzero"/></clipPath><clipPath id="6ff63e504e"><path d="M 427 460.800781 L 448 460.800781 L 448 488 L 427 488 Z M 427 460.800781 " clip-rule="nonzero"/></clipPath><clipPath id="ebb0f8a35d"><path d="M 422.027344 487.699219 L 476.433594 487.699219 L 476.433594 531.660156 L 422.027344 531.660156 Z M 422.027344 487.699219 " clip-rule="nonzero"/></clipPath><clipPath id="0656551455"><path d="M 467 480 L 488.734375 480 L 488.734375 504 L 467 504 Z M 467 480 " clip-rule="nonzero"/></clipPath></defs><g clip-path="url(#ff37b243d1)"><g clip-path="url(#dde491a36a)"><path fill="#324d27" d="M 14.25 14.25 L 885.75 14.25 L 885.75 885.75 L 14.25 885.75 Z M 14.25 14.25 " fill-opacity="1" fill-rule="nonzero"/></g></g><g clip-path="url(#dc7040177c)"><g clip-path="url(#e834a53811)"><path fill="#324d27" d="M 392.933594 439.210938 L 507.066406 439.210938 L 507.066406 553.34375 L 392.933594 553.34375 Z M 392.933594 439.210938 " fill-opacity="1" fill-rule="nonzero"/></g></g><g clip-path="url(#f90165d945)"><g clip-path="url(#051326ee0c)"><path stroke-linecap="butt" transform="matrix(0.778641, 0, 0, 0.778641, 392.933187, 439.211157)" fill="none" stroke-linejoin="miter" d="M 73.290271 -0.00028192 C 32.815105 -0.00028192 0.000521824 32.814302 0.000521824 73.289468 C 0.000521824 113.764634 32.815105 146.579217 73.290271 146.579217 C 113.765437 146.579217 146.580021 113.764634 146.580021 73.289468 C 146.580021 32.814302 113.765437 -0.00028192 73.290271 -0.00028192 Z M 73.290271 -0.00028192 " stroke="#ffffff" stroke-width="11.558599" stroke-opacity="1" stroke-miterlimit="4"/></g></g><g clip-path="url(#406c50c0ef)"><path fill="#ffffff" d="M 424.992188 503.105469 C 425.160156 503.085938 425.328125 503.070312 425.5 503.0625 C 427.34375 502.816406 428.96875 501.917969 430.214844 500.539062 C 431.222656 499.4375 431.882812 498.109375 432.261719 496.550781 C 432.582031 495.332031 432.644531 493.96875 432.441406 492.625 C 432.136719 489.933594 431.078125 487.390625 429.273438 485.15625 C 428.707031 484.445312 428.054688 483.734375 427.320312 483.117188 C 425.675781 481.722656 423.992188 480.925781 422.171875 480.484375 C 420.96875 480.25 419.851562 480.164062 418.683594 480.351562 C 416.839844 480.671875 415.289062 481.484375 414.046875 482.855469 C 413.039062 483.964844 412.3125 485.464844 412.023438 487.105469 C 411.835938 487.96875 411.742188 488.824219 411.8125 489.671875 L 411.828125 489.921875 C 411.855469 490.179688 411.871094 490.433594 411.894531 490.683594 L 411.914062 490.929688 C 412.160156 492.871094 412.820312 494.679688 413.808594 496.382812 C 414.597656 497.675781 415.550781 498.871094 416.652344 499.886719 C 418.210938 501.285156 419.902344 502.25 421.722656 502.6875 C 422.867188 503.105469 423.976562 503.179688 424.992188 503.105469 " fill-opacity="1" fill-rule="nonzero"/></g><g clip-path="url(#6ff63e504e)"><path fill="#ffffff" d="M 427.800781 477.21875 C 428.308594 479.25 429.15625 481.027344 430.257812 482.550781 C 431.355469 484.074219 432.542969 485.175781 433.980469 486.019531 C 435.164062 486.785156 436.433594 487.207031 437.789062 487.289062 L 438.46875 487.289062 C 439.820312 487.289062 441.089844 486.953125 442.191406 486.191406 C 443.292969 485.597656 444.308594 484.667969 445.152344 483.566406 C 446.339844 482.042969 447.101562 480.179688 447.441406 477.980469 C 447.523438 477.046875 447.609375 476.117188 447.609375 475.101562 C 447.609375 474.339844 447.523438 473.578125 447.441406 472.816406 C 447.269531 471.460938 446.933594 470.191406 446.425781 468.921875 C 445.578125 466.804688 444.390625 465.027344 442.867188 463.675781 C 441.769531 462.660156 440.582031 461.898438 439.3125 461.472656 C 437.707031 460.882812 436.097656 460.796875 434.488281 461.21875 C 432.964844 461.558594 431.609375 462.40625 430.425781 463.675781 C 429.410156 464.773438 428.734375 465.960938 428.140625 467.398438 C 427.546875 469.089844 427.207031 470.871094 427.207031 472.902344 C 427.207031 473.238281 427.292969 473.578125 427.292969 474.085938 C 427.378906 475.101562 427.546875 476.203125 427.800781 477.21875 " fill-opacity="1" fill-rule="nonzero"/></g><path fill="#ffffff" d="M 451.839844 481.195312 C 452.433594 482.890625 453.28125 484.242188 454.464844 485.34375 C 455.988281 486.785156 457.765625 487.628906 459.796875 487.714844 L 460.308594 487.714844 C 461.320312 487.714844 462.253906 487.460938 463.269531 487.460938 C 464.707031 486.867188 465.976562 486.019531 467.246094 484.835938 C 468.515625 483.566406 469.53125 482.128906 470.292969 480.519531 C 471.394531 478.234375 471.988281 475.863281 472.074219 473.324219 C 472.074219 471.886719 471.988281 470.445312 471.648438 469.175781 C 471.226562 467.398438 470.632812 465.960938 469.703125 464.691406 C 468.179688 462.574219 466.148438 461.390625 463.777344 461.050781 C 463.691406 461.050781 463.691406 461.050781 463.605469 461.050781 L 461.660156 461.050781 C 460.558594 461.21875 459.375 461.558594 458.359375 462.152344 C 457.003906 462.914062 455.734375 464.011719 454.636719 465.367188 C 453.449219 466.804688 452.601562 468.5 451.925781 470.363281 C 451.332031 472.054688 451.078125 473.832031 450.996094 475.609375 C 450.996094 476.371094 450.996094 477.132812 451.078125 477.894531 C 451.25 479.082031 451.503906 480.179688 451.839844 481.195312 " fill-opacity="1" fill-rule="nonzero"/><g clip-path="url(#ebb0f8a35d)"><path fill="#ffffff" d="M 473.164062 509.808594 C 472.0625 508.199219 470.710938 506.675781 469.101562 505.320312 C 468 504.304688 466.898438 503.207031 465.96875 502.019531 C 464.953125 500.75 464.023438 499.394531 463.261719 498.210938 L 462.667969 497.28125 C 462.074219 496.347656 461.484375 495.503906 460.890625 494.570312 C 459.960938 493.214844 459.113281 492.117188 458.179688 491.269531 C 456.574219 489.746094 454.710938 488.730469 452.59375 488.222656 C 451.242188 487.882812 449.800781 487.800781 448.445312 487.800781 C 447.175781 487.800781 445.90625 488.054688 444.722656 488.5625 C 443.285156 489.152344 442.011719 490.085938 440.660156 491.355469 C 439.898438 492.117188 439.050781 493.046875 438.203125 494.148438 C 437.359375 495.25 436.597656 496.347656 435.835938 497.449219 L 435.410156 498.125 C 434.394531 499.480469 433.378906 501.003906 432.195312 502.359375 C 431.179688 503.542969 430.246094 504.476562 429.316406 505.320312 C 428.132812 506.335938 426.945312 507.523438 426.015625 508.792969 C 424.660156 510.570312 423.644531 512.515625 422.96875 514.464844 C 422.546875 515.816406 422.289062 517.171875 422.207031 518.527344 C 422.121094 519.710938 422.207031 520.980469 422.460938 522.082031 C 423.136719 525.214844 424.746094 527.753906 427.371094 529.617188 C 428.894531 530.714844 430.585938 531.394531 432.53125 531.5625 C 432.789062 531.648438 432.957031 531.648438 433.210938 531.648438 L 434.480469 531.648438 C 435.242188 531.648438 436.003906 531.5625 436.597656 531.476562 C 438.289062 531.140625 439.980469 530.714844 441.507812 530.292969 L 441.589844 530.292969 C 443.03125 529.953125 444.46875 529.53125 445.90625 529.277344 C 446.5 529.191406 447.261719 529.023438 448.023438 529.023438 C 449.039062 529.023438 449.96875 529.023438 450.816406 529.105469 C 452.003906 529.277344 453.355469 529.53125 454.796875 529.867188 C 455.472656 530.039062 456.234375 530.292969 456.914062 530.460938 C 457.84375 530.714844 458.859375 530.96875 459.875 531.222656 C 460.890625 531.476562 461.992188 531.730469 463.175781 531.730469 L 465.207031 531.730469 C 465.375 531.730469 465.460938 531.648438 465.628906 531.394531 C 466.136719 531.394531 466.730469 531.308594 467.238281 531.140625 C 468.59375 530.800781 469.949219 530.207031 471.21875 529.277344 C 472.910156 528.089844 474.265625 526.566406 475.113281 524.789062 C 476.042969 522.84375 476.464844 520.8125 476.378906 518.527344 C 476.296875 517.257812 476.042969 515.816406 475.535156 514.464844 C 475.027344 512.855469 474.265625 511.332031 473.164062 509.808594 " fill-opacity="1" fill-rule="nonzero"/></g><g clip-path="url(#0656551455)"><path fill="#ffffff" d="M 487.96875 487.105469 C 487.679688 485.464844 486.953125 483.964844 485.9375 482.855469 C 484.695312 481.484375 483.152344 480.671875 481.308594 480.351562 C 480.132812 480.164062 479.023438 480.25 477.8125 480.484375 C 475.992188 480.925781 474.316406 481.722656 472.671875 483.117188 C 471.9375 483.734375 471.285156 484.445312 470.71875 485.15625 C 468.914062 487.390625 467.855469 489.933594 467.542969 492.625 C 467.347656 493.96875 467.410156 495.332031 467.730469 496.550781 C 468.109375 498.109375 468.761719 499.4375 469.777344 500.539062 C 471.023438 501.917969 472.648438 502.816406 474.492188 503.0625 C 474.664062 503.070312 474.832031 503.085938 475 503.105469 C 476.015625 503.179688 477.125 503.105469 478.261719 502.6875 C 480.082031 502.25 481.773438 501.285156 483.339844 499.886719 C 484.4375 498.871094 485.386719 497.675781 486.175781 496.382812 C 487.164062 494.679688 487.824219 492.871094 488.070312 490.929688 L 488.097656 490.683594 C 488.113281 490.433594 488.140625 490.179688 488.15625 489.921875 L 488.179688 489.671875 C 488.25 488.824219 488.148438 487.96875 487.96875 487.105469 " fill-opacity="1" fill-rule="nonzero"/></g><g fill="#324d27" fill-opacity="1"><g transform="translate(158.740245, 276.95106)"><g><path d="M -0.578125 -7.125 L -29.75 -28.015625 C -30.875 -28.828125 -31.546875 -29.910156 -31.765625 -31.265625 C -31.984375 -32.628906 -31.691406 -33.875 -30.890625 -35 L -16.0625 -55.703125 C -15.320312 -56.722656 -14.332031 -57.335938 -13.09375 -57.546875 C -11.851562 -57.753906 -10.726562 -57.492188 -9.71875 -56.765625 C -8.695312 -56.035156 -8.082031 -55.050781 -7.875 -53.8125 C -7.664062 -52.570312 -7.929688 -51.441406 -8.671875 -50.421875 L -20.59375 -33.78125 L -12.71875 -28.140625 L -2.5 -42.40625 C -1.757812 -43.425781 -0.769531 -44.035156 0.46875 -44.234375 C 1.707031 -44.429688 2.832031 -44.164062 3.84375 -43.4375 C 4.875 -42.707031 5.492188 -41.722656 5.703125 -40.484375 C 5.910156 -39.242188 5.644531 -38.113281 4.90625 -37.09375 L -5.3125 -22.828125 L 5.25 -15.265625 C 6.375 -14.453125 7.050781 -13.363281 7.28125 -12 C 7.507812 -10.644531 7.21875 -9.40625 6.40625 -8.28125 C 5.601562 -7.15625 4.519531 -6.476562 3.15625 -6.25 C 1.789062 -6.019531 0.546875 -6.3125 -0.578125 -7.125 Z M -0.578125 -7.125 "/></g></g></g><g fill="#324d27" fill-opacity="1"><g transform="translate(189.476156, 234.887458)"><g><path d="M -25.671875 -39.28125 C -24.691406 -40.257812 -23.507812 -40.75 -22.125 -40.75 C -20.75 -40.75 -19.570312 -40.257812 -18.59375 -39.28125 L -3.609375 -24.390625 C -0.910156 -21.703125 1.691406 -20.316406 4.203125 -20.234375 C 6.710938 -20.148438 9.066406 -21.210938 11.265625 -23.421875 C 13.472656 -25.640625 14.546875 -27.988281 14.484375 -30.46875 C 14.421875 -32.945312 13.082031 -35.488281 10.46875 -38.09375 L -4.75 -53.21875 C -5.726562 -54.195312 -6.21875 -55.375 -6.21875 -56.75 C -6.226562 -58.132812 -5.75 -59.316406 -4.78125 -60.296875 C -3.800781 -61.273438 -2.617188 -61.765625 -1.234375 -61.765625 C 0.140625 -61.773438 1.316406 -61.289062 2.296875 -60.3125 L 17.234375 -45.46875 C 19.660156 -43.050781 21.457031 -40.601562 22.625 -38.125 C 23.800781 -35.644531 24.390625 -33.1875 24.390625 -30.75 C 24.390625 -28.3125 23.820312 -25.925781 22.6875 -23.59375 C 21.5625 -21.269531 19.914062 -19.015625 17.75 -16.828125 C 13.4375 -12.503906 8.84375 -10.285156 3.96875 -10.171875 C -0.90625 -10.066406 -5.722656 -12.382812 -10.484375 -17.125 L -25.65625 -32.203125 C -26.632812 -33.179688 -27.125 -34.359375 -27.125 -35.734375 C -27.132812 -37.109375 -26.648438 -38.289062 -25.671875 -39.28125 Z M -25.671875 -39.28125 "/></g></g></g><g fill="#324d27" fill-opacity="1"><g transform="translate(231.292206, 194.054324)"><g><path d="M -19.140625 -36.09375 C -19.941406 -37.226562 -20.226562 -38.476562 -20 -39.84375 C -19.769531 -41.207031 -19.09375 -42.289062 -17.96875 -43.09375 L -5.125 -52.296875 C -3.15625 -53.703125 -1.148438 -54.765625 0.890625 -55.484375 C 2.929688 -56.203125 4.9375 -56.503906 6.90625 -56.390625 C 8.875 -56.273438 10.765625 -55.707031 12.578125 -54.6875 C 14.398438 -53.675781 16.054688 -52.132812 17.546875 -50.0625 L 17.625 -49.96875 C 19.75 -47 20.789062 -44.128906 20.75 -41.359375 C 20.71875 -38.585938 19.894531 -35.9375 18.28125 -33.40625 L 28.875 -30.59375 C 29.601562 -30.363281 30.265625 -30.097656 30.859375 -29.796875 C 31.453125 -29.503906 31.976562 -29.046875 32.4375 -28.421875 C 33.238281 -27.285156 33.488281 -26.085938 33.1875 -24.828125 C 32.882812 -23.578125 32.238281 -22.601562 31.25 -21.90625 C 30.34375 -21.25 29.425781 -20.894531 28.5 -20.84375 C 27.570312 -20.800781 26.648438 -20.898438 25.734375 -21.140625 L 10.59375 -25.5 L 4.09375 -20.84375 L 9.890625 -12.75 C 10.703125 -11.625 10.992188 -10.382812 10.765625 -9.03125 C 10.546875 -7.675781 9.875 -6.59375 8.75 -5.78125 C 7.625 -4.976562 6.378906 -4.6875 5.015625 -4.90625 C 3.648438 -5.125 2.5625 -5.796875 1.75 -6.921875 Z M -8.65625 -38.65625 L -1.046875 -28.03125 L 7.203125 -33.9375 C 9.203125 -35.375 10.398438 -36.953125 10.796875 -38.671875 C 11.191406 -40.390625 10.828125 -42.039062 9.703125 -43.625 L 9.609375 -43.734375 C 8.328125 -45.535156 6.8125 -46.460938 5.0625 -46.515625 C 3.3125 -46.578125 1.4375 -45.890625 -0.5625 -44.453125 Z M -8.65625 -38.65625 "/></g></g></g><g fill="#324d27" fill-opacity="1"><g transform="translate(277.565832, 161.865058)"><g><path d="M -13 -38.734375 C -13.613281 -39.984375 -13.691406 -41.257812 -13.234375 -42.5625 C -12.785156 -43.875 -11.941406 -44.835938 -10.703125 -45.453125 L 3.46875 -52.421875 C 5.644531 -53.492188 7.796875 -54.21875 9.921875 -54.59375 C 12.054688 -54.96875 14.085938 -54.9375 16.015625 -54.5 C 17.941406 -54.070312 19.71875 -53.207031 21.34375 -51.90625 C 22.976562 -50.601562 24.359375 -48.804688 25.484375 -46.515625 L 25.546875 -46.40625 C 27.148438 -43.132812 27.707031 -40.132812 27.21875 -37.40625 C 26.726562 -34.6875 25.484375 -32.207031 23.484375 -29.96875 L 33.46875 -25.46875 C 34.164062 -25.132812 34.78125 -24.769531 35.3125 -24.375 C 35.851562 -23.988281 36.296875 -23.441406 36.640625 -22.734375 C 37.242188 -21.492188 37.289062 -20.28125 36.78125 -19.09375 C 36.28125 -17.90625 35.488281 -17.046875 34.40625 -16.515625 C 33.394531 -16.015625 32.425781 -15.816406 31.5 -15.921875 C 30.582031 -16.023438 29.691406 -16.269531 28.828125 -16.65625 L 14.625 -23.421875 L 7.4375 -19.890625 L 11.84375 -10.96875 C 12.445312 -9.71875 12.523438 -8.441406 12.078125 -7.140625 C 11.640625 -5.847656 10.800781 -4.894531 9.5625 -4.28125 C 8.320312 -3.664062 7.046875 -3.578125 5.734375 -4.015625 C 4.421875 -4.453125 3.460938 -5.296875 2.859375 -6.546875 Z M -2.234375 -39.546875 L 3.53125 -27.828125 L 12.625 -32.3125 C 14.84375 -33.40625 16.285156 -34.765625 16.953125 -36.390625 C 17.628906 -38.023438 17.539062 -39.71875 16.6875 -41.46875 L 16.625 -41.59375 C 15.644531 -43.570312 14.296875 -44.726562 12.578125 -45.0625 C 10.867188 -45.40625 8.910156 -45.035156 6.703125 -43.953125 Z M -2.234375 -39.546875 "/></g></g></g><g fill="#324d27" fill-opacity="1"><g transform="translate(328.561075, 137.709496)"><g><path d="M -10.625 -39.703125 C -11.019531 -40.992188 -10.882812 -42.226562 -10.21875 -43.40625 C -9.5625 -44.582031 -8.570312 -45.367188 -7.25 -45.765625 C -6.175781 -46.097656 -5.179688 -46.109375 -4.265625 -45.796875 C -3.359375 -45.484375 -2.484375 -44.976562 -1.640625 -44.28125 L 13.578125 -32.28125 L 19.640625 -50.9375 C 19.953125 -51.976562 20.398438 -52.875 20.984375 -53.625 C 21.578125 -54.375 22.367188 -54.898438 23.359375 -55.203125 C 24.804688 -55.640625 26.082031 -55.535156 27.1875 -54.890625 C 28.300781 -54.253906 29.0625 -53.273438 29.46875 -51.953125 C 29.664062 -51.296875 29.722656 -50.644531 29.640625 -50 C 29.566406 -49.363281 29.429688 -48.769531 29.234375 -48.21875 L 20.984375 -24.96875 L 24.828125 -12.40625 C 25.234375 -11.082031 25.109375 -9.8125 24.453125 -8.59375 C 23.804688 -7.375 22.820312 -6.5625 21.5 -6.15625 C 20.164062 -5.75 18.890625 -5.867188 17.671875 -6.515625 C 16.460938 -7.171875 15.65625 -8.160156 15.25 -9.484375 L 11.46875 -21.859375 L -8.390625 -36.640625 C -8.878906 -36.992188 -9.320312 -37.414062 -9.71875 -37.90625 C -10.113281 -38.394531 -10.414062 -38.992188 -10.625 -39.703125 Z M -10.625 -39.703125 "/></g></g></g><g fill="#324d27" fill-opacity="1"><g transform="translate(381.482196, 123.007191)"><g/></g></g><g fill="#324d27" fill-opacity="1"><g transform="translate(410.864448, 117.788562)"><g><path d="M 5.203125 -4.890625 L 3.3125 -40.71875 C 3.238281 -42.101562 3.660156 -43.304688 4.578125 -44.328125 C 5.503906 -45.359375 6.660156 -45.910156 8.046875 -45.984375 L 33.484375 -47.328125 C 34.742188 -47.398438 35.835938 -47.015625 36.765625 -46.171875 C 37.703125 -45.328125 38.207031 -44.28125 38.28125 -43.03125 C 38.34375 -41.769531 37.953125 -40.675781 37.109375 -39.75 C 36.273438 -38.820312 35.226562 -38.320312 33.96875 -38.25 L 13.53125 -37.171875 L 14.046875 -27.5 L 31.5625 -28.4375 C 32.820312 -28.5 33.914062 -28.109375 34.84375 -27.265625 C 35.78125 -26.421875 36.28125 -25.375 36.34375 -24.125 C 36.40625 -22.863281 36.015625 -21.765625 35.171875 -20.828125 C 34.335938 -19.890625 33.289062 -19.390625 32.03125 -19.328125 L 14.515625 -18.390625 L 15.203125 -5.421875 C 15.273438 -4.035156 14.847656 -2.828125 13.921875 -1.796875 C 13.003906 -0.773438 11.851562 -0.226562 10.46875 -0.15625 C 9.082031 -0.0820312 7.875 -0.503906 6.84375 -1.421875 C 5.820312 -2.347656 5.273438 -3.503906 5.203125 -4.890625 Z M 5.203125 -4.890625 "/></g></g></g><g fill="#324d27" fill-opacity="1"><g transform="translate(462.968914, 115.613217)"><g><path d="M 9.671875 -39.703125 C 9.816406 -41.078125 10.425781 -42.195312 11.5 -43.0625 C 12.582031 -43.9375 13.8125 -44.300781 15.1875 -44.15625 L 30.90625 -42.5 C 33.3125 -42.238281 35.515625 -41.695312 37.515625 -40.875 C 39.515625 -40.0625 41.21875 -38.957031 42.625 -37.5625 C 44.03125 -36.164062 45.078125 -34.484375 45.765625 -32.515625 C 46.453125 -30.546875 46.660156 -28.289062 46.390625 -25.75 L 46.375 -25.625 C 45.988281 -22 44.859375 -19.164062 42.984375 -17.125 C 41.109375 -15.082031 38.734375 -13.644531 35.859375 -12.8125 L 41.890625 -3.6875 C 42.296875 -3.03125 42.617188 -2.394531 42.859375 -1.78125 C 43.109375 -1.164062 43.191406 -0.472656 43.109375 0.296875 C 42.960938 1.679688 42.359375 2.742188 41.296875 3.484375 C 40.234375 4.222656 39.097656 4.523438 37.890625 4.390625 C 36.773438 4.273438 35.851562 3.925781 35.125 3.34375 C 34.40625 2.757812 33.785156 2.078125 33.265625 1.296875 L 24.875 -12.015625 L 16.921875 -12.859375 L 15.875 -2.953125 C 15.726562 -1.578125 15.117188 -0.457031 14.046875 0.40625 C 12.972656 1.269531 11.742188 1.628906 10.359375 1.484375 C 8.984375 1.335938 7.859375 0.734375 6.984375 -0.328125 C 6.117188 -1.398438 5.757812 -2.625 5.90625 -4 Z M 19.21875 -34.640625 L 17.84375 -21.65625 L 27.921875 -20.59375 C 30.378906 -20.332031 32.328125 -20.707031 33.765625 -21.71875 C 35.203125 -22.738281 36.019531 -24.21875 36.21875 -26.15625 L 36.234375 -26.296875 C 36.472656 -28.492188 35.957031 -30.191406 34.6875 -31.390625 C 33.425781 -32.597656 31.566406 -33.332031 29.109375 -33.59375 Z M 19.21875 -34.640625 "/></g></g></g><g fill="#324d27" fill-opacity="1"><g transform="translate(519.540134, 123.060847)"><g><path d="M 15.28125 -38.390625 C 15.601562 -39.742188 16.347656 -40.773438 17.515625 -41.484375 C 18.679688 -42.203125 19.941406 -42.398438 21.296875 -42.078125 C 22.640625 -41.753906 23.671875 -41.007812 24.390625 -39.84375 C 25.117188 -38.675781 25.320312 -37.414062 25 -36.0625 L 16.5625 -0.78125 C 16.238281 0.5625 15.488281 1.59375 14.3125 2.3125 C 13.132812 3.039062 11.875 3.242188 10.53125 2.921875 C 9.175781 2.597656 8.140625 1.847656 7.421875 0.671875 C 6.710938 -0.503906 6.519531 -1.765625 6.84375 -3.109375 Z M 15.28125 -38.390625 "/></g></g></g><g fill="#324d27" fill-opacity="1"><g transform="translate(550.754209, 130.48823)"><g><path d="M 6.875 -2.765625 L 19.359375 -35.984375 C 19.847656 -37.285156 20.722656 -38.21875 21.984375 -38.78125 C 23.242188 -39.351562 24.519531 -39.394531 25.8125 -38.90625 L 49.421875 -30.03125 C 50.585938 -29.59375 51.421875 -28.8125 51.921875 -27.6875 C 52.429688 -26.570312 52.46875 -25.425781 52.03125 -24.25 C 51.582031 -23.070312 50.800781 -22.238281 49.6875 -21.75 C 48.582031 -21.269531 47.445312 -21.25 46.28125 -21.6875 L 27.296875 -28.828125 L 24.046875 -20.1875 L 40.296875 -14.078125 C 41.460938 -13.640625 42.300781 -12.863281 42.8125 -11.75 C 43.320312 -10.632812 43.351562 -9.484375 42.90625 -8.296875 C 42.46875 -7.128906 41.691406 -6.300781 40.578125 -5.8125 C 39.472656 -5.320312 38.335938 -5.296875 37.171875 -5.734375 L 20.921875 -11.84375 L 17.5625 -2.921875 L 36.84375 4.328125 C 38.019531 4.773438 38.859375 5.554688 39.359375 6.671875 C 39.867188 7.785156 39.90625 8.929688 39.46875 10.109375 C 39.019531 11.285156 38.238281 12.117188 37.125 12.609375 C 36.019531 13.097656 34.878906 13.117188 33.703125 12.671875 L 9.796875 3.6875 C 8.503906 3.195312 7.570312 2.320312 7 1.0625 C 6.425781 -0.1875 6.382812 -1.460938 6.875 -2.765625 Z M 6.875 -2.765625 "/></g></g></g><g fill="#324d27" fill-opacity="1"><g transform="translate(600.128207, 149.536622)"><g><path d="M 7 -1.203125 L 25.140625 -32.53125 C 25.835938 -33.726562 26.851562 -34.503906 28.1875 -34.859375 C 29.53125 -35.222656 30.800781 -35.054688 32 -34.359375 L 32.890625 -33.84375 C 33.941406 -33.238281 34.671875 -32.503906 35.078125 -31.640625 C 35.484375 -30.773438 35.765625 -29.789062 35.921875 -28.6875 L 39.9375 2.921875 L 51.6875 -17.390625 C 52.382812 -18.585938 53.382812 -19.359375 54.6875 -19.703125 C 55.988281 -20.054688 57.238281 -19.890625 58.4375 -19.203125 C 59.632812 -18.503906 60.40625 -17.5 60.75 -16.1875 C 61.101562 -14.882812 60.929688 -13.632812 60.234375 -12.4375 L 42.09375 18.890625 C 41.40625 20.085938 40.390625 20.863281 39.046875 21.21875 C 37.710938 21.582031 36.445312 21.414062 35.25 20.71875 L 34.96875 20.5625 C 33.90625 19.945312 33.175781 19.210938 32.78125 18.359375 C 32.382812 17.503906 32.101562 16.519531 31.9375 15.40625 L 27.78125 -17.34375 L 15.5625 3.75 C 14.863281 4.945312 13.859375 5.71875 12.546875 6.0625 C 11.242188 6.414062 9.992188 6.25 8.796875 5.5625 C 7.585938 4.863281 6.8125 3.859375 6.46875 2.546875 C 6.125 1.242188 6.300781 -0.00390625 7 -1.203125 Z M 7 -1.203125 "/></g></g></g><g fill="#324d27" fill-opacity="1"><g transform="translate(652.055985, 180.562536)"><g><path d="M 30.265625 -27.453125 C 31.160156 -28.515625 32.296875 -29.101562 33.671875 -29.21875 C 35.046875 -29.332031 36.257812 -28.941406 37.3125 -28.046875 L 47.0625 -19.84375 C 49.8125 -17.53125 51.941406 -14.984375 53.453125 -12.203125 C 54.960938 -9.429688 55.882812 -6.570312 56.21875 -3.625 C 56.550781 -0.6875 56.28125 2.207031 55.40625 5.0625 C 54.53125 7.925781 53.054688 10.582031 50.984375 13.03125 L 50.90625 13.125 C 48.84375 15.582031 46.46875 17.492188 43.78125 18.859375 C 41.101562 20.222656 38.285156 20.992188 35.328125 21.171875 C 32.367188 21.347656 29.382812 20.929688 26.375 19.921875 C 23.375 18.921875 20.5 17.265625 17.75 14.953125 L 8 6.75 C 6.945312 5.851562 6.359375 4.71875 6.234375 3.34375 C 6.109375 1.96875 6.492188 0.75 7.390625 -0.3125 Z M 23.5625 8.046875 C 25.125 9.359375 26.757812 10.304688 28.46875 10.890625 C 30.175781 11.484375 31.878906 11.695312 33.578125 11.53125 C 35.273438 11.375 36.914062 10.875 38.5 10.03125 C 40.082031 9.1875 41.519531 8.003906 42.8125 6.484375 L 42.890625 6.375 C 44.203125 4.820312 45.140625 3.191406 45.703125 1.484375 C 46.265625 -0.222656 46.476562 -1.921875 46.34375 -3.609375 C 46.21875 -5.304688 45.726562 -6.957031 44.875 -8.5625 C 44.019531 -10.164062 42.8125 -11.625 41.25 -12.9375 L 35.328125 -17.921875 L 17.640625 3.0625 Z M 23.5625 8.046875 "/></g></g></g><g fill="#324d27" fill-opacity="1"><g transform="translate(697.37583, 220.220974)"><g><path d="M 14.796875 -3 C 15.210938 -2.507812 15.5 -2.023438 15.65625 -1.546875 C 15.8125 -1.078125 15.914062 -0.644531 15.96875 -0.25 C 16.15625 1.875 16.585938 3.898438 17.265625 5.828125 C 17.941406 7.765625 19 9.570312 20.4375 11.25 C 21.789062 12.820312 23.128906 13.796875 24.453125 14.171875 C 25.773438 14.554688 26.945312 14.3125 27.96875 13.4375 L 28.0625 13.359375 C 28.550781 12.929688 28.910156 12.460938 29.140625 11.953125 C 29.367188 11.453125 29.4375 10.796875 29.34375 9.984375 C 29.25 9.179688 28.96875 8.191406 28.5 7.015625 C 28.03125 5.835938 27.351562 4.375 26.46875 2.625 C 25.40625 0.519531 24.519531 -1.453125 23.8125 -3.296875 C 23.113281 -5.148438 22.738281 -6.910156 22.6875 -8.578125 C 22.632812 -10.242188 22.945312 -11.84375 23.625 -13.375 C 24.3125 -14.90625 25.515625 -16.40625 27.234375 -17.875 L 27.328125 -17.953125 C 28.910156 -19.316406 30.585938 -20.242188 32.359375 -20.734375 C 34.140625 -21.222656 35.945312 -21.328125 37.78125 -21.046875 C 39.613281 -20.773438 41.410156 -20.109375 43.171875 -19.046875 C 44.941406 -17.992188 46.585938 -16.582031 48.109375 -14.8125 C 51.691406 -10.625 53.800781 -6.09375 54.4375 -1.21875 C 54.539062 -0.5625 54.492188 0.144531 54.296875 0.90625 C 54.109375 1.675781 53.632812 2.382812 52.875 3.03125 C 51.882812 3.882812 50.757812 4.253906 49.5 4.140625 C 48.238281 4.023438 47.179688 3.472656 46.328125 2.484375 C 45.742188 1.796875 45.375 1.003906 45.21875 0.109375 C 44.613281 -3.734375 43.3125 -6.820312 41.3125 -9.15625 C 40.050781 -10.632812 38.8125 -11.492188 37.59375 -11.734375 C 36.382812 -11.984375 35.351562 -11.738281 34.5 -11 L 34.40625 -10.921875 C 33.8125 -10.410156 33.40625 -9.878906 33.1875 -9.328125 C 32.976562 -8.773438 32.957031 -8.085938 33.125 -7.265625 C 33.289062 -6.441406 33.632812 -5.40625 34.15625 -4.15625 C 34.675781 -2.914062 35.375 -1.390625 36.25 0.421875 C 37.28125 2.554688 38.09375 4.554688 38.6875 6.421875 C 39.28125 8.285156 39.570312 10.03125 39.5625 11.65625 C 39.5625 13.289062 39.222656 14.804688 38.546875 16.203125 C 37.878906 17.609375 36.789062 18.960938 35.28125 20.265625 L 35.1875 20.359375 C 33.476562 21.816406 31.6875 22.800781 29.8125 23.3125 C 27.945312 23.832031 26.078125 23.921875 24.203125 23.578125 C 22.335938 23.242188 20.503906 22.503906 18.703125 21.359375 C 16.898438 20.222656 15.195312 18.71875 13.59375 16.84375 C 11.644531 14.570312 10.070312 12.039062 8.875 9.25 C 7.675781 6.457031 6.921875 3.476562 6.609375 0.3125 C 6.535156 -0.363281 6.640625 -1.050781 6.921875 -1.75 C 7.210938 -2.445312 7.65625 -3.046875 8.25 -3.546875 C 9.238281 -4.398438 10.363281 -4.769531 11.625 -4.65625 C 12.894531 -4.539062 13.953125 -3.988281 14.796875 -3 Z M 14.796875 -3 "/></g></g></g><g fill="#324d27" fill-opacity="1"><g transform="translate(730.189485, 260.438796)"><g/></g></g></svg>